<svg width="14" height="14" viewBox="0 0 14 14" fill="none" xmlns="http://www.w3.org/2000/svg">
<path d="M6.70801 0.408524C7.96779 0.408524 8.993 1.43296 8.99316 2.6927V2.89095H10.4551C10.719 2.89108 10.9399 3.09055 10.9678 3.35286L11.8389 11.6458C11.8503 11.7548 11.8263 11.8639 11.7725 11.9574L11.709 12.0452C11.6111 12.1539 11.4714 12.2161 11.3252 12.2161H2.09082C1.94477 12.2161 1.80582 12.1537 1.70801 12.0452H1.70703C1.60951 11.9367 1.56292 11.7911 1.57812 11.6458L2.44824 3.35286C2.47606 3.09043 2.69786 2.89095 2.96191 2.89095H4.42383V2.6927C4.42399 1.43308 5.44831 0.408723 6.70801 0.408524ZM2.66406 11.1839H10.752L9.99023 3.92317H8.99316V4.49934C8.99316 4.78429 8.7615 5.01595 8.47656 5.01595C8.19184 5.01568 7.96094 4.78412 7.96094 4.49934V3.92317H5.45605V4.49934C5.45605 4.78429 5.22439 5.01595 4.93945 5.01595C4.65459 5.01586 4.42383 4.78423 4.42383 4.49934V3.92317H3.42676L2.66406 11.1839ZM6.70801 1.44075C6.01766 1.44095 5.45622 2.00245 5.45605 2.6927V2.89095H7.96094V2.6927C7.96077 2.00232 7.39843 1.44075 6.70801 1.44075Z" fill="white" stroke="white" stroke-width="0.35" stroke-linejoin="round"/>
</svg>
