<svg width="21" height="17" viewBox="0 0 21 17" fill="none" xmlns="http://www.w3.org/2000/svg">
<path d="M16.7955 0.650024C17.6225 0.650024 18.3167 1.28144 18.402 2.11682L18.4098 2.26331V3.47327L18.8492 3.526C19.2941 3.56643 19.667 3.77331 19.9342 4.1178C20.1737 4.39154 20.3052 4.75506 20.3102 5.14221L20.3033 5.29749L19.3551 15.442C19.279 16.1655 18.6515 16.7473 17.8864 16.8229L17.7438 16.8297L17.5778 16.8278L2.98987 15.1852C2.24719 15.1175 1.66663 14.5426 1.56897 13.8287C1.06972 13.5891 0.716492 13.1008 0.65686 12.5211L0.650024 12.3727V2.26331C0.650207 1.43647 1.28153 0.742054 2.11682 0.65686L2.26331 0.650024H16.7955ZM18.1539 13.2408C17.9229 13.599 17.5517 13.8627 17.111 13.9537L16.942 13.9791L16.7955 13.9869H4.30042L17.7115 15.4996C17.8308 15.5105 17.9432 15.4472 17.9928 15.3649L18.0143 15.3141L18.027 15.2467L18.2262 13.1168L18.1539 13.2408ZM1.98206 12.3727C1.98206 12.4882 2.05431 12.5904 2.14221 12.6315L2.1969 12.649L2.26331 12.6549H16.7955C16.9109 12.6549 17.0131 12.5825 17.0543 12.4948L17.0719 12.4401L17.0778 12.3727V6.0885H1.98206V12.3727ZM16.1637 7.91565C16.4879 7.91565 16.7514 8.12122 16.8209 8.47034L16.8297 8.58167V11.4254C16.8296 11.7496 16.6242 12.0122 16.275 12.0817L16.1637 12.0914H11.109C10.7849 12.0913 10.5224 11.8857 10.4528 11.5367L10.443 11.4254V8.58167C10.4431 8.25758 10.6487 7.99499 10.9977 7.92542L11.109 7.91565H16.1637ZM18.4088 11.1617L18.9801 5.06995C18.9888 5.02663 18.9626 4.9359 18.9166 4.87463L18.8922 4.84729L18.8405 4.80237L18.7555 4.7926L18.4088 4.76233V11.1617ZM11.775 10.7594H15.4977V9.24768H11.775V10.7594ZM1.98206 4.75647H17.0778V3.56116H1.98206V4.75647ZM2.26331 1.98206C2.14787 1.98221 2.04549 2.0543 2.00452 2.14221L1.98792 2.1969L1.98499 2.22913H17.0758L17.0582 2.16272C17.0254 2.07868 16.9532 2.01365 16.8649 1.99084L16.7955 1.98206H2.26331Z" fill="#37474F"/>
</svg>
