<svg width="19" height="21" viewBox="0 0 19 21" fill="none" xmlns="http://www.w3.org/2000/svg">
<path d="M9.5 0.825195C11.5906 0.825195 13.2918 2.52562 13.292 4.61621V5.08105H15.9229C16.3116 5.08121 16.6371 5.3752 16.6777 5.76172L18.1709 19.9775C18.1933 20.1915 18.1238 20.4053 17.9795 20.5654C17.8355 20.7253 17.6303 20.8164 17.415 20.8164H1.58496C1.39669 20.8164 1.21588 20.7466 1.07715 20.6221L1.02051 20.5654C0.876718 20.4055 0.806705 20.1916 0.829102 19.9775L2.32227 5.76172C2.36294 5.3752 2.68841 5.08121 3.07715 5.08105H5.70801V4.61621C5.70821 2.52564 7.40925 0.825235 9.5 0.825195ZM2.42871 19.2979H16.5713L15.2383 6.60059H13.292V7.71387C13.2919 8.13321 12.9516 8.47355 12.5322 8.47363C12.1128 8.47363 11.7725 8.13326 11.7725 7.71387V6.60059H7.22754V7.71387C7.22749 8.13326 6.88718 8.47363 6.46777 8.47363C6.04843 8.47356 5.70806 8.13322 5.70801 7.71387V6.60059H3.76172L2.42871 19.2979ZM9.5 2.34375C8.24721 2.34379 7.22774 3.36362 7.22754 4.61621V5.08105H11.7725V4.61621C11.7723 3.36359 10.7527 2.34375 9.5 2.34375Z" fill="#37474F" stroke="#37474F" stroke-width="0.35" stroke-linejoin="round"/>
</svg>
