<svg width="14" height="16" viewBox="0 0 14 16" fill="none" xmlns="http://www.w3.org/2000/svg">
<path d="M2.52336 11.825V7.819H1.34086C0.641007 7.819 0.254883 7.43288 0.254883 6.73303V6.68477C0.254883 6.00905 0.641007 5.62293 1.34086 5.62293H2.52336V4.22323C2.52336 2.94419 2.16137 2.5822 1.29259 2.48567C0.665139 2.41327 0.254883 2.09955 0.254883 1.30317V1.2549C0.254883 0.434389 0.809936 0 1.77524 0C4.16439 0 5.25036 1.71342 5.25036 4.1267V5.62293H5.63648C6.3122 5.62293 6.67419 6.00905 6.67419 6.68477V6.73303C6.67419 7.43288 6.3122 7.819 5.63648 7.819H5.25036V11.825C5.25036 13.1041 6.19153 13.5626 7.34991 13.5626C9.76318 13.5626 11.2111 11.7285 11.2111 9.17044C11.2111 8.25339 11.0181 7.57768 10.5596 7.33635C10.5113 8.27753 10.0528 8.90498 9.01506 8.90498C7.90496 8.90498 7.22924 8.25339 7.22924 7.11916C7.22924 5.5264 8.31522 4.82655 9.83558 4.82655C12.4178 4.82655 13.7451 6.58824 13.7451 9.26697C13.7451 12.8386 11.6938 16 7.34991 16C4.57464 16 2.52336 14.6244 2.52336 11.825Z" fill="#37474F"/>
</svg>
