<svg width="20" height="20" viewBox="0 0 20 20" fill="none" xmlns="http://www.w3.org/2000/svg">
<path d="M10.5 1C15.7467 1 20 5.25329 20 10.5C20 15.7467 15.7467 20 10.5 20C5.25329 20 1 15.7467 1 10.5C1 5.25329 5.25329 1 10.5 1ZM15.1699 7C15.0162 7 14.8685 7.06119 14.7598 7.16992L9.00977 12.9141L6.99023 10.8945C6.88153 10.7857 6.73391 10.7246 6.58008 10.7246C6.42629 10.7247 6.27855 10.7857 6.16992 10.8945C5.94322 11.1214 5.94324 11.4879 6.16992 11.7148L8.60254 14.1475C8.82943 14.3743 9.19589 14.3742 9.42285 14.1475L15.5801 7.99023C15.8066 7.76326 15.8069 7.39674 15.5801 7.16992C15.4714 7.06105 15.3237 7.0001 15.1699 7Z" fill="#5EC401"/>
</svg>
