<svg width="17" height="17" viewBox="0 0 17 17" fill="none" xmlns="http://www.w3.org/2000/svg">
<path fill-rule="evenodd" clip-rule="evenodd" d="M3.54183 4.95829C3.15225 4.95829 2.8335 4.63954 2.8335 4.24996C2.8335 3.86038 3.15225 3.54163 3.54183 3.54163H13.4585C13.8481 3.54163 14.1668 3.86038 14.1668 4.24996C14.1668 4.63954 13.8481 4.95829 13.4585 4.95829H3.54183ZM3.54183 6.37496H13.4585C13.8481 6.37496 14.1668 6.69371 14.1668 7.08329C14.1668 7.47288 13.8481 7.79163 13.4585 7.79163H3.54183C3.15225 7.79163 2.8335 7.47288 2.8335 7.08329C2.8335 6.69371 3.15225 6.37496 3.54183 6.37496ZM3.54183 12.0416H9.2085C9.59808 12.0416 9.91683 12.3604 9.91683 12.75C9.91683 13.1395 9.59808 13.4583 9.2085 13.4583H3.54183C3.15225 13.4583 2.8335 13.1395 2.8335 12.75C2.8335 12.3604 3.15225 12.0416 3.54183 12.0416ZM3.54183 10.625H13.4585C13.8481 10.625 14.1668 10.3062 14.1668 9.91663C14.1668 9.52704 13.8481 9.20829 13.4585 9.20829H3.54183C3.15225 9.20829 2.8335 9.52704 2.8335 9.91663C2.8335 10.3062 3.15225 10.625 3.54183 10.625Z" fill="white"/>
</svg>
