<svg width="22" height="22" viewBox="0 0 22 22" fill="none" xmlns="http://www.w3.org/2000/svg">
<path d="M4.87567 13.2948L4.10988 16.1536L1.31093 16.2128C0.474461 14.6614 0 12.8863 0 11C0 9.17589 0.44361 7.45577 1.22994 5.94116H1.23054L3.72238 6.39801L4.81396 8.8749C4.5855 9.54096 4.46097 10.256 4.46097 11C4.46106 11.8074 4.60733 12.5811 4.87567 13.2948Z" fill="#FBBB00"/>
<path d="M21.8079 8.94507C21.9342 9.61048 22.0001 10.2977 22.0001 11C22.0001 11.7875 21.9173 12.5557 21.7596 13.2967C21.2241 15.8183 19.8249 18.0201 17.8866 19.5782L17.886 19.5776L14.7474 19.4175L14.3032 16.6445C15.5894 15.8902 16.5945 14.7098 17.1239 13.2967H11.2419V8.94507H17.2097H21.8079Z" fill="#518EF8"/>
<path d="M17.8857 19.5775L17.8863 19.5781C16.0013 21.0933 13.6066 21.9999 10.9999 21.9999C6.81079 21.9999 3.16872 19.6585 1.31079 16.2129L4.87552 13.2949C5.80446 15.7741 8.19606 17.5389 10.9999 17.5389C12.205 17.5389 13.3341 17.2131 14.3029 16.6444L17.8857 19.5775Z" fill="#28B446"/>
<path d="M18.0213 2.53241L14.4578 5.44981C13.4551 4.82307 12.2699 4.46102 11 4.46102C8.13278 4.46102 5.69646 6.30683 4.81405 8.87494L1.23058 5.94121H1.22998C3.06071 2.41154 6.74872 0 11 0C13.6691 0 16.1163 0.950727 18.0213 2.53241Z" fill="#F14336"/>
</svg>
