<svg width="18" height="18" viewBox="0 0 18 18" fill="none" xmlns="http://www.w3.org/2000/svg">
<path fill-rule="evenodd" clip-rule="evenodd" d="M8.00182 1.00269C8.00182 0.452686 8.45182 0.00268555 9.00182 0.00268555C9.55182 0.00268555 10.0018 0.452686 10.0018 1.00269V9.00269C10.0018 9.55269 9.55182 10.0027 9.00182 10.0027C8.45182 10.0027 8.00182 9.55269 8.00182 9.00269V1.00269ZM14.1318 4.25269C13.7618 3.86269 13.7518 3.25269 14.1418 2.86269C14.5418 2.46269 15.2018 2.47269 15.5818 2.88269C17.0818 4.48269 18.0018 6.62269 18.0018 8.99269C18.0018 14.0627 13.8118 18.1527 8.71182 17.9927C3.83182 17.8427 -0.138177 13.6227 0.00182259 8.74269C0.0718226 6.47269 0.981822 4.42269 2.43182 2.88269C2.81182 2.47269 3.46182 2.46269 3.86182 2.86269C4.24182 3.24269 4.24182 3.85269 3.87182 4.24269C2.71182 5.49269 2.00182 7.16269 2.00182 9.00269C2.00182 12.9027 5.18182 16.0527 9.09182 15.9927C12.9218 15.9527 16.0918 12.6527 16.0018 8.82269C15.9618 7.05269 15.2618 5.45269 14.1318 4.25269Z" fill="#FF5552"/>
</svg>
